<?xml version="1.0" standalone="no"?>
<svg
  width="100%"
  height="100%"
  viewBox="0 0 800 400"
  preserveAspectRatio="xMidYMid meet"
  xmlns="http://www.w3.org/2000/svg"
  >
  <text 
    x="400"
    y="25"
    font-family="-apple-system, system-ui, BlinkMacSystemFont, Roboto"
    dominant-baseline="middle"
    text-anchor="middle"
    font-size="18"
    fill="#74838f"
    font-weight="700"
    >
    SVG
  </text>
  
  
  
  <text
    x="45"
    font-family="-apple-system, system-ui, BlinkMacSystemFont, Roboto"
    y="50"
    dominant-baseline="middle"
    text-anchor="end"
    font-size="12"
    fill="#74838f"
    font-weight="bold"
    >
    
    2.5
     
  </text>
  <text
    x="50"
    font-family="-apple-system, system-ui, BlinkMacSystemFont, Roboto"
    y="360"
    dominant-baseline="hanging"
    text-anchor="middle"
    font-size="12"
    fill="#74838f"
    font-weight="bold"
  >
  -4.4
  </text>

  <path stroke="#74838f" stroke-width="2.0" d="M 50 350 L 50 360" />
  
  <path stroke="#74838f" stroke-dasharray="10 6" stroke-width="0.5"  d="M 50 50 L 750 50" />
  
    
  
  
  
  <text
    x="45"
    font-family="-apple-system, system-ui, BlinkMacSystemFont, Roboto"
    y="80"
    dominant-baseline="middle"
    text-anchor="end"
    font-size="12"
    fill="#74838f"
    font-weight="bold"
    >
    
    2
     
  </text>
  <text
    x="120"
    font-family="-apple-system, system-ui, BlinkMacSystemFont, Roboto"
    y="360"
    dominant-baseline="hanging"
    text-anchor="middle"
    font-size="12"
    fill="#74838f"
    font-weight="bold"
  >
  -3.52
  </text>

  <path stroke="#74838f" stroke-width="2.0" d="M 120 350 L 120 360" />
  
  <path stroke="#74838f" stroke-dasharray="10 6" stroke-width="0.5"  d="M 50 80 L 750 80" />
  
    
  
  
  
  <text
    x="45"
    font-family="-apple-system, system-ui, BlinkMacSystemFont, Roboto"
    y="110"
    dominant-baseline="middle"
    text-anchor="end"
    font-size="12"
    fill="#74838f"
    font-weight="bold"
    >
    
    1.5
     
  </text>
  <text
    x="190"
    font-family="-apple-system, system-ui, BlinkMacSystemFont, Roboto"
    y="360"
    dominant-baseline="hanging"
    text-anchor="middle"
    font-size="12"
    fill="#74838f"
    font-weight="bold"
  >
  -2.64
  </text>

  <path stroke="#74838f" stroke-width="2.0" d="M 190 350 L 190 360" />
  
  <path stroke="#74838f" stroke-dasharray="10 6" stroke-width="0.5"  d="M 50 110 L 750 110" />
  
    
  
  
  
  <text
    x="45"
    font-family="-apple-system, system-ui, BlinkMacSystemFont, Roboto"
    y="140"
    dominant-baseline="middle"
    text-anchor="end"
    font-size="12"
    fill="#74838f"
    font-weight="bold"
    >
    
    1
     
  </text>
  <text
    x="260"
    font-family="-apple-system, system-ui, BlinkMacSystemFont, Roboto"
    y="360"
    dominant-baseline="hanging"
    text-anchor="middle"
    font-size="12"
    fill="#74838f"
    font-weight="bold"
  >
  -1.76
  </text>

  <path stroke="#74838f" stroke-width="2.0" d="M 260 350 L 260 360" />
  
  <path stroke="#74838f" stroke-dasharray="10 6" stroke-width="0.5"  d="M 50 140 L 750 140" />
  
    
  
  
  
  <text
    x="45"
    font-family="-apple-system, system-ui, BlinkMacSystemFont, Roboto"
    y="170"
    dominant-baseline="middle"
    text-anchor="end"
    font-size="12"
    fill="#74838f"
    font-weight="bold"
    >
    
    0.5
     
  </text>
  <text
    x="330"
    font-family="-apple-system, system-ui, BlinkMacSystemFont, Roboto"
    y="360"
    dominant-baseline="hanging"
    text-anchor="middle"
    font-size="12"
    fill="#74838f"
    font-weight="bold"
  >
  -0.88
  </text>

  <path stroke="#74838f" stroke-width="2.0" d="M 330 350 L 330 360" />
  
  <path stroke="#74838f" stroke-dasharray="10 6" stroke-width="0.5"  d="M 50 170 L 750 170" />
  
    
  
  
  
  <text
    x="45"
    font-family="-apple-system, system-ui, BlinkMacSystemFont, Roboto"
    y="200"
    dominant-baseline="middle"
    text-anchor="end"
    font-size="12"
    fill="#74838f"
    font-weight="bold"
    >
    
    0
     
  </text>
  <text
    x="400"
    font-family="-apple-system, system-ui, BlinkMacSystemFont, Roboto"
    y="360"
    dominant-baseline="hanging"
    text-anchor="middle"
    font-size="12"
    fill="#74838f"
    font-weight="bold"
  >
  0
  </text>

  <path stroke="#74838f" stroke-width="2.0" d="M 400 350 L 400 360" />
  
  <path stroke="#74838f" stroke-width="2" fill="none"  d="M 50 200 L 750 200" />
    
  
  
  
  <text
    x="45"
    font-family="-apple-system, system-ui, BlinkMacSystemFont, Roboto"
    y="230"
    dominant-baseline="middle"
    text-anchor="end"
    font-size="12"
    fill="#74838f"
    font-weight="bold"
    >
    
    -0.5
     
  </text>
  <text
    x="470"
    font-family="-apple-system, system-ui, BlinkMacSystemFont, Roboto"
    y="360"
    dominant-baseline="hanging"
    text-anchor="middle"
    font-size="12"
    fill="#74838f"
    font-weight="bold"
  >
  0.89
  </text>

  <path stroke="#74838f" stroke-width="2.0" d="M 470 350 L 470 360" />
  
  <path stroke="#74838f" stroke-dasharray="10 6" stroke-width="0.5"  d="M 50 230 L 750 230" />
  
    
  
  
  
  <text
    x="45"
    font-family="-apple-system, system-ui, BlinkMacSystemFont, Roboto"
    y="260"
    dominant-baseline="middle"
    text-anchor="end"
    font-size="12"
    fill="#74838f"
    font-weight="bold"
    >
    
    -1
     
  </text>
  <text
    x="540"
    font-family="-apple-system, system-ui, BlinkMacSystemFont, Roboto"
    y="360"
    dominant-baseline="hanging"
    text-anchor="middle"
    font-size="12"
    fill="#74838f"
    font-weight="bold"
  >
  1.77
  </text>

  <path stroke="#74838f" stroke-width="2.0" d="M 540 350 L 540 360" />
  
  <path stroke="#74838f" stroke-dasharray="10 6" stroke-width="0.5"  d="M 50 260 L 750 260" />
  
    
  
  
  
  <text
    x="45"
    font-family="-apple-system, system-ui, BlinkMacSystemFont, Roboto"
    y="290"
    dominant-baseline="middle"
    text-anchor="end"
    font-size="12"
    fill="#74838f"
    font-weight="bold"
    >
    
    -1.5
     
  </text>
  <text
    x="610"
    font-family="-apple-system, system-ui, BlinkMacSystemFont, Roboto"
    y="360"
    dominant-baseline="hanging"
    text-anchor="middle"
    font-size="12"
    fill="#74838f"
    font-weight="bold"
  >
  2.64
  </text>

  <path stroke="#74838f" stroke-width="2.0" d="M 610 350 L 610 360" />
  
  <path stroke="#74838f" stroke-dasharray="10 6" stroke-width="0.5"  d="M 50 290 L 750 290" />
  
    
  
  
  
  <text
    x="45"
    font-family="-apple-system, system-ui, BlinkMacSystemFont, Roboto"
    y="320"
    dominant-baseline="middle"
    text-anchor="end"
    font-size="12"
    fill="#74838f"
    font-weight="bold"
    >
    
    -2
     
  </text>
  <text
    x="680"
    font-family="-apple-system, system-ui, BlinkMacSystemFont, Roboto"
    y="360"
    dominant-baseline="hanging"
    text-anchor="middle"
    font-size="12"
    fill="#74838f"
    font-weight="bold"
  >
  3.53
  </text>

  <path stroke="#74838f" stroke-width="2.0" d="M 680 350 L 680 360" />
  
  <path stroke="#74838f" stroke-dasharray="10 6" stroke-width="0.5"  d="M 50 320 L 750 320" />
  
    
  
  
  
  <text
    x="45"
    font-family="-apple-system, system-ui, BlinkMacSystemFont, Roboto"
    y="350"
    dominant-baseline="middle"
    text-anchor="end"
    font-size="12"
    fill="#74838f"
    font-weight="bold"
    >
    
    -2.5
     
  </text>
  <text
    x="750"
    font-family="-apple-system, system-ui, BlinkMacSystemFont, Roboto"
    y="360"
    dominant-baseline="hanging"
    text-anchor="middle"
    font-size="12"
    fill="#74838f"
    font-weight="bold"
  >
  4.41
  </text>

  <path stroke="#74838f" stroke-width="2.0" d="M 750 350 L 750 360" />
  
  <path stroke="#74838f" stroke-dasharray="10 6" stroke-width="0.5"  d="M 50 350 L 750 350" />
  
    
  


  <path stroke="#8ff0a4" d="M 559.0909090909091 140 L 575 140 L 575 110 L 575 110 L 582.9545454545455 182.00000000000003 L 582.9545454545455 122 L 582.9545454545455 122 L 582.9545454545455 140 L 590.9090909090909 140 L 590.9090909090909 134 L 590.9090909090909 140 L 598.8636363636364 134 L 598.8636363636364 110 L 598.8636363636364 122 L 598.8636363636364 134 L 598.8636363636364 97.99999999999997 L 598.8636363636364 92 L 598.8636363636364 80 L 598.8636363636364 85.99999999999994 L 606.8181818181818 140 L 606.8181818181818 128 L 606.8181818181818 128 L 606.8181818181818 62 L 606.8181818181818 116 L 614.7727272727273 116 L 614.7727272727273 140 L 614.7727272727273 128 L 614.7727272727273 104.00000000000003 L 614.7727272727273 122 L 614.7727272727273 85.99999999999994 L 614.7727272727273 85.99999999999994 L 614.7727272727273 92 L 614.7727272727273 85.99999999999994 L 622.7272727272726 110 L 622.7272727272726 122 L 622.7272727272726 122 L 622.7272727272726 128 L 622.7272727272726 116 L 622.7272727272726 122 L 622.7272727272726 56 L 622.7272727272726 80 L 622.7272727272726 80 L 622.7272727272726 92 L 622.7272727272726 74 L 622.7272727272726 85.99999999999994 L 622.7272727272726 68 L 622.7272727272726 110 L 630.6818181818182 188 L 630.6818181818182 122 L 630.6818181818182 116 L 630.6818181818182 122 L 630.6818181818182 122 L 630.6818181818182 110 L 630.6818181818182 122 L 630.6818181818182 122 L 630.6818181818182 92 L 630.6818181818182 92 L 638.6363636363636 188 L 638.6363636363636 194 L 638.6363636363636 194 L 638.6363636363636 188 L 638.6363636363636 188 L 638.6363636363636 182.00000000000003 L 638.6363636363636 110 L 638.6363636363636 110 L 638.6363636363636 116 L 638.6363636363636 97.99999999999997 L 638.6363636363636 110 L 638.6363636363636 122 L 638.6363636363636 116 L 638.6363636363636 128 L 638.6363636363636 74 L 638.6363636363636 68 L 638.6363636363636 74 L 638.6363636363636 74 L 638.6363636363636 92 L 638.6363636363636 92 L 638.6363636363636 104.00000000000003 L 638.6363636363636 62 L 638.6363636363636 92 L 638.6363636363636 62 L 638.6363636363636 80 L 638.6363636363636 92 L 646.590909090909 188 L 646.590909090909 194 L 646.590909090909 188 L 646.590909090909 194 L 646.590909090909 194 L 646.590909090909 110 L 646.590909090909 116 L 646.590909090909 110 L 646.590909090909 92 L 646.590909090909 74 L 646.590909090909 56 L 646.590909090909 62 L 654.5454545454545 188 L 654.5454545454545 188 L 654.5454545454545 188 L 654.5454545454545 188 L 654.5454545454545 188 L 654.5454545454545 116 L 654.5454545454545 110 L 654.5454545454545 92 L 654.5454545454545 80 L 654.5454545454545 62 L 654.5454545454545 62 L 654.5454545454545 92 L 654.5454545454545 62 L 662.5 170 L 662.5 188 L 662.5 104.00000000000003 L 662.5 50 L 662.5 74 L 662.5 50 L 670.4545454545455 182.00000000000003 L 670.4545454545455 188 L 670.4545454545455 188 L 670.4545454545455 188 L 670.4545454545455 188 L 670.4545454545455 176 L 670.4545454545455 188 L 670.4545454545455 176 L 670.4545454545455 188 L 670.4545454545455 104.00000000000003 L 670.4545454545455 56 L 670.4545454545455 62 L 678.4090909090909 182.00000000000003 L 678.4090909090909 188 L 678.4090909090909 188 L 678.4090909090909 182.00000000000003 L 678.4090909090909 164 L 686.3636363636364 188 L 686.3636363636364 188 L 686.3636363636364 50 L 694.3181818181819 188 L 694.3181818181819 176 L 694.3181818181819 188 L 702.2727272727271 182.00000000000003 L 702.2727272727271 182.00000000000003 L 702.2727272727271 176 L 702.2727272727271 188 L 702.2727272727271 68 L 702.2727272727271 80 L 710.2272727272727 176 L 710.2272727272727 176 L 718.1818181818181 188 L 726.1363636363636 194 L 734.0909090909092 188 L 750 176" stroke-width="2.0" fill="none" />
</svg>
