<?xml version="1.0" standalone="no"?>
<svg
  width="100%"
  height="100%"
  viewBox="0 0 800 400"
  preserveAspectRatio="xMidYMid meet"
  xmlns="http://www.w3.org/2000/svg"
  >
  <text 
    x="400"
    y="25"
    font-family="-apple-system, system-ui, BlinkMacSystemFont, Roboto"
    dominant-baseline="middle"
    text-anchor="middle"
    font-size="18"
    fill="#74838f"
    font-weight="700"
    >
    SVG
  </text>
  
  
  
  <text
    x="45"
    font-family="-apple-system, system-ui, BlinkMacSystemFont, Roboto"
    y="50"
    dominant-baseline="middle"
    text-anchor="end"
    font-size="12"
    fill="#74838f"
    font-weight="bold"
    >
    2.5
  </text>
  <text
    x="50"
    font-family="-apple-system, system-ui, BlinkMacSystemFont, Roboto"
    y="360"
    dominant-baseline="hanging"
    text-anchor="middle"
    font-size="12"
    fill="#74838f"
    font-weight="bold"
  >
  0
  </text>

  <path stroke="#74838f" stroke-width="2.0" d="M 50 350 L 50 360" />
  
  <path stroke="#74838f" stroke-dasharray="10 6" stroke-width="0.5"  d="M 50 50 L 750 50" />
  
    
  
  
  
  <text
    x="45"
    font-family="-apple-system, system-ui, BlinkMacSystemFont, Roboto"
    y="110"
    dominant-baseline="middle"
    text-anchor="end"
    font-size="12"
    fill="#74838f"
    font-weight="bold"
    >
    2
  </text>
  <text
    x="190"
    font-family="-apple-system, system-ui, BlinkMacSystemFont, Roboto"
    y="360"
    dominant-baseline="hanging"
    text-anchor="middle"
    font-size="12"
    fill="#74838f"
    font-weight="bold"
  >
  0.8800000000000001
  </text>

  <path stroke="#74838f" stroke-width="2.0" d="M 190 350 L 190 360" />
  
  <path stroke="#74838f" stroke-dasharray="10 6" stroke-width="0.5"  d="M 50 110 L 750 110" />
  
    
  
  
  
  <text
    x="45"
    font-family="-apple-system, system-ui, BlinkMacSystemFont, Roboto"
    y="170"
    dominant-baseline="middle"
    text-anchor="end"
    font-size="12"
    fill="#74838f"
    font-weight="bold"
    >
    1.5
  </text>
  <text
    x="330"
    font-family="-apple-system, system-ui, BlinkMacSystemFont, Roboto"
    y="360"
    dominant-baseline="hanging"
    text-anchor="middle"
    font-size="12"
    fill="#74838f"
    font-weight="bold"
  >
  1.7600000000000002
  </text>

  <path stroke="#74838f" stroke-width="2.0" d="M 330 350 L 330 360" />
  
  <path stroke="#74838f" stroke-dasharray="10 6" stroke-width="0.5"  d="M 50 170 L 750 170" />
  
    
  
  
  
  <text
    x="45"
    font-family="-apple-system, system-ui, BlinkMacSystemFont, Roboto"
    y="230"
    dominant-baseline="middle"
    text-anchor="end"
    font-size="12"
    fill="#74838f"
    font-weight="bold"
    >
    1
  </text>
  <text
    x="470"
    font-family="-apple-system, system-ui, BlinkMacSystemFont, Roboto"
    y="360"
    dominant-baseline="hanging"
    text-anchor="middle"
    font-size="12"
    fill="#74838f"
    font-weight="bold"
  >
  2.64
  </text>

  <path stroke="#74838f" stroke-width="2.0" d="M 470 350 L 470 360" />
  
  <path stroke="#74838f" stroke-dasharray="10 6" stroke-width="0.5"  d="M 50 230 L 750 230" />
  
    
  
  
  
  <text
    x="45"
    font-family="-apple-system, system-ui, BlinkMacSystemFont, Roboto"
    y="290"
    dominant-baseline="middle"
    text-anchor="end"
    font-size="12"
    fill="#74838f"
    font-weight="bold"
    >
    0.5
  </text>
  <text
    x="610"
    font-family="-apple-system, system-ui, BlinkMacSystemFont, Roboto"
    y="360"
    dominant-baseline="hanging"
    text-anchor="middle"
    font-size="12"
    fill="#74838f"
    font-weight="bold"
  >
  3.5200000000000005
  </text>

  <path stroke="#74838f" stroke-width="2.0" d="M 610 350 L 610 360" />
  
  <path stroke="#74838f" stroke-dasharray="10 6" stroke-width="0.5"  d="M 50 290 L 750 290" />
  
    
  
  
  
  <text
    x="45"
    font-family="-apple-system, system-ui, BlinkMacSystemFont, Roboto"
    y="350"
    dominant-baseline="middle"
    text-anchor="end"
    font-size="12"
    fill="#74838f"
    font-weight="bold"
    >
    0
  </text>
  <text
    x="750"
    font-family="-apple-system, system-ui, BlinkMacSystemFont, Roboto"
    y="360"
    dominant-baseline="hanging"
    text-anchor="middle"
    font-size="12"
    fill="#74838f"
    font-weight="bold"
  >
  4.4
  </text>

  <path stroke="#74838f" stroke-width="2.0" d="M 750 350 L 750 360" />
  
  <path stroke="#74838f" stroke-width="2" fill="none"  d="M 50 350 L 750 350" />
    
    
  <path stroke="#8ff0a4" stroke-linejoin="round" d="M 368.1818181818182 230 L 400 230 L 400 170 L 400 170 L 415.9090909090908 314 L 415.9090909090908 194 L 415.9090909090908 194 L 415.9090909090908 230 L 431.8181818181818 230 L 431.8181818181818 217.99999999999997 L 431.8181818181818 230 L 447.7272727272727 217.99999999999997 L 447.7272727272727 170 L 447.7272727272727 194 L 447.7272727272727 217.99999999999997 L 447.7272727272727 146.00000000000003 L 447.7272727272727 134 L 447.7272727272727 110 L 447.7272727272727 122 L 463.63636363636357 230 L 463.63636363636357 206 L 463.63636363636357 206 L 463.63636363636357 74 L 463.63636363636357 182.00000000000003 L 479.54545454545456 182.00000000000003 L 479.54545454545456 230 L 479.54545454545456 206 L 479.54545454545456 158 L 479.54545454545456 194 L 479.54545454545456 122 L 479.54545454545456 122 L 479.54545454545456 134 L 479.54545454545456 122 L 495.4545454545454 170 L 495.4545454545454 194 L 495.4545454545454 194 L 495.4545454545454 206 L 495.4545454545454 182.00000000000003 L 495.4545454545454 194 L 495.4545454545454 62 L 495.4545454545454 110 L 495.4545454545454 110 L 495.4545454545454 134 L 495.4545454545454 97.99999999999997 L 495.4545454545454 122 L 495.4545454545454 85.99999999999994 L 495.4545454545454 170 L 511.3636363636363 326 L 511.3636363636363 194 L 511.3636363636363 182.00000000000003 L 511.3636363636363 194 L 511.3636363636363 194 L 511.3636363636363 170 L 511.3636363636363 194 L 511.3636363636363 194 L 511.3636363636363 134 L 511.3636363636363 134 L 527.2727272727273 326 L 527.2727272727273 338 L 527.2727272727273 338 L 527.2727272727273 326 L 527.2727272727273 326 L 527.2727272727273 314 L 527.2727272727273 170 L 527.2727272727273 170 L 527.2727272727273 182.00000000000003 L 527.2727272727273 146.00000000000003 L 527.2727272727273 170 L 527.2727272727273 194 L 527.2727272727273 182.00000000000003 L 527.2727272727273 206 L 527.2727272727273 97.99999999999997 L 527.2727272727273 85.99999999999994 L 527.2727272727273 97.99999999999997 L 527.2727272727273 97.99999999999997 L 527.2727272727273 134 L 527.2727272727273 134 L 527.2727272727273 158 L 527.2727272727273 74 L 527.2727272727273 134 L 527.2727272727273 74 L 527.2727272727273 110 L 527.2727272727273 134 L 543.1818181818181 326 L 543.1818181818181 338 L 543.1818181818181 326 L 543.1818181818181 338 L 543.1818181818181 338 L 543.1818181818181 170 L 543.1818181818181 182.00000000000003 L 543.1818181818181 170 L 543.1818181818181 134 L 543.1818181818181 97.99999999999997 L 543.1818181818181 62 L 543.1818181818181 74 L 559.0909090909091 326 L 559.0909090909091 326 L 559.0909090909091 326 L 559.0909090909091 326 L 559.0909090909091 326 L 559.0909090909091 182.00000000000003 L 559.0909090909091 170 L 559.0909090909091 134 L 559.0909090909091 110 L 559.0909090909091 74 L 559.0909090909091 74 L 559.0909090909091 134 L 559.0909090909091 74 L 574.9999999999999 290 L 574.9999999999999 326 L 574.9999999999999 158 L 574.9999999999999 50 L 574.9999999999999 97.99999999999997 L 574.9999999999999 50 L 590.9090909090908 314 L 590.9090909090908 326 L 590.9090909090908 326 L 590.9090909090908 326 L 590.9090909090908 326 L 590.9090909090908 302 L 590.9090909090908 326 L 590.9090909090908 302 L 590.9090909090908 326 L 590.9090909090908 158 L 590.9090909090908 62 L 590.9090909090908 74 L 606.8181818181818 314 L 606.8181818181818 326 L 606.8181818181818 326 L 606.8181818181818 314 L 606.8181818181818 278 L 622.7272727272726 326 L 622.7272727272726 326 L 622.7272727272726 50 L 638.6363636363636 326 L 638.6363636363636 302 L 638.6363636363636 326 L 654.5454545454545 314 L 654.5454545454545 314 L 654.5454545454545 302 L 654.5454545454545 326 L 654.5454545454545 85.99999999999994 L 654.5454545454545 110 L 670.4545454545454 302 L 670.4545454545454 302 L 686.3636363636364 326 L 702.2727272727271 338 L 718.1818181818181 326 L 750 302" stroke-width="2.0" fill="none" />
</svg>
