<?xml version="1.0" standalone="no"?>
<svg
  width="100%"
  height="100%"
  viewBox="0 0 800 400"
  preserveAspectRatio="xMidYMid meet"
  xmlns="http://www.w3.org/2000/svg"
  >
  <text 
    x="400"
    y="10"
    font-family="-apple-system, system-ui, BlinkMacSystemFont, Roboto"
    dominant-baseline="middle"
    text-anchor="middle"
    font-size="18"
    fill="#74838f"
    font-weight="700"
    >
    Neural Networks
  </text>
  
  
  
  <text
    x="15"
    font-family="-apple-system, system-ui, BlinkMacSystemFont, Roboto"
    y="20"
    dominant-baseline="middle"
    text-anchor="end"
    font-size="12"
    fill="#74838f"
    font-weight="bold"
    >
    4
    
  </text>
  <text
    x="20"
    font-family="-apple-system, system-ui, BlinkMacSystemFont, Roboto"
    y="390"
    dominant-baseline="hanging"
    text-anchor="middle"
    font-size="12"
    fill="#74838f"
    font-weight="bold"
  >
  1
  </text>

  <path stroke="#74838f" stroke-width="2.0" d="M 20 380 L 20 390" />
  <path stroke="#74838f" stroke-dasharray="10 6" stroke-width="0.5"  d="M 20 20 L 20 380" />
  <path stroke="#74838f" stroke-dasharray="10 6" stroke-width="0.5"  d="M 20 20 L 780 20" />
  
    

  
  <path stroke="#74838f" stroke-width="2" fill="none"  d="M 20 20 L 20 380" />
   

  
  
  
  <text
    x="15"
    font-family="-apple-system, system-ui, BlinkMacSystemFont, Roboto"
    y="56"
    dominant-baseline="middle"
    text-anchor="end"
    font-size="12"
    fill="#74838f"
    font-weight="bold"
    >
    3.5
    
  </text>
  <text
    x="96"
    font-family="-apple-system, system-ui, BlinkMacSystemFont, Roboto"
    y="390"
    dominant-baseline="hanging"
    text-anchor="middle"
    font-size="12"
    fill="#74838f"
    font-weight="bold"
  >
  1.4
  </text>

  <path stroke="#74838f" stroke-width="2.0" d="M 96 380 L 96 390" />
  <path stroke="#74838f" stroke-dasharray="10 6" stroke-width="0.5"  d="M 96 20 L 96 380" />
  <path stroke="#74838f" stroke-dasharray="10 6" stroke-width="0.5"  d="M 20 56 L 780 56" />
  
    

   

  
  
  
  <text
    x="15"
    font-family="-apple-system, system-ui, BlinkMacSystemFont, Roboto"
    y="92"
    dominant-baseline="middle"
    text-anchor="end"
    font-size="12"
    fill="#74838f"
    font-weight="bold"
    >
    3
    
  </text>
  <text
    x="172"
    font-family="-apple-system, system-ui, BlinkMacSystemFont, Roboto"
    y="390"
    dominant-baseline="hanging"
    text-anchor="middle"
    font-size="12"
    fill="#74838f"
    font-weight="bold"
  >
  1.8
  </text>

  <path stroke="#74838f" stroke-width="2.0" d="M 172 380 L 172 390" />
  <path stroke="#74838f" stroke-dasharray="10 6" stroke-width="0.5"  d="M 172 20 L 172 380" />
  <path stroke="#74838f" stroke-dasharray="10 6" stroke-width="0.5"  d="M 20 92 L 780 92" />
  
    

   

  
  
  
  <text
    x="15"
    font-family="-apple-system, system-ui, BlinkMacSystemFont, Roboto"
    y="128"
    dominant-baseline="middle"
    text-anchor="end"
    font-size="12"
    fill="#74838f"
    font-weight="bold"
    >
    2.5
    
  </text>
  <text
    x="248"
    font-family="-apple-system, system-ui, BlinkMacSystemFont, Roboto"
    y="390"
    dominant-baseline="hanging"
    text-anchor="middle"
    font-size="12"
    fill="#74838f"
    font-weight="bold"
  >
  2.21
  </text>

  <path stroke="#74838f" stroke-width="2.0" d="M 248 380 L 248 390" />
  <path stroke="#74838f" stroke-dasharray="10 6" stroke-width="0.5"  d="M 248 20 L 248 380" />
  <path stroke="#74838f" stroke-dasharray="10 6" stroke-width="0.5"  d="M 20 128 L 780 128" />
  
    

   

  
  
  
  <text
    x="15"
    font-family="-apple-system, system-ui, BlinkMacSystemFont, Roboto"
    y="164"
    dominant-baseline="middle"
    text-anchor="end"
    font-size="12"
    fill="#74838f"
    font-weight="bold"
    >
    2
    
  </text>
  <text
    x="324"
    font-family="-apple-system, system-ui, BlinkMacSystemFont, Roboto"
    y="390"
    dominant-baseline="hanging"
    text-anchor="middle"
    font-size="12"
    fill="#74838f"
    font-weight="bold"
  >
  2.6
  </text>

  <path stroke="#74838f" stroke-width="2.0" d="M 324 380 L 324 390" />
  <path stroke="#74838f" stroke-dasharray="10 6" stroke-width="0.5"  d="M 324 20 L 324 380" />
  <path stroke="#74838f" stroke-dasharray="10 6" stroke-width="0.5"  d="M 20 164 L 780 164" />
  
    

   

  
  
  
  <text
    x="15"
    font-family="-apple-system, system-ui, BlinkMacSystemFont, Roboto"
    y="200"
    dominant-baseline="middle"
    text-anchor="end"
    font-size="12"
    fill="#74838f"
    font-weight="bold"
    >
    1.5
    
  </text>
  <text
    x="400"
    font-family="-apple-system, system-ui, BlinkMacSystemFont, Roboto"
    y="390"
    dominant-baseline="hanging"
    text-anchor="middle"
    font-size="12"
    fill="#74838f"
    font-weight="bold"
  >
  3
  </text>

  <path stroke="#74838f" stroke-width="2.0" d="M 400 380 L 400 390" />
  <path stroke="#74838f" stroke-dasharray="10 6" stroke-width="0.5"  d="M 400 20 L 400 380" />
  <path stroke="#74838f" stroke-dasharray="10 6" stroke-width="0.5"  d="M 20 200 L 780 200" />
  
    

   

  
  
  
  <text
    x="15"
    font-family="-apple-system, system-ui, BlinkMacSystemFont, Roboto"
    y="236"
    dominant-baseline="middle"
    text-anchor="end"
    font-size="12"
    fill="#74838f"
    font-weight="bold"
    >
    1
    
  </text>
  <text
    x="476"
    font-family="-apple-system, system-ui, BlinkMacSystemFont, Roboto"
    y="390"
    dominant-baseline="hanging"
    text-anchor="middle"
    font-size="12"
    fill="#74838f"
    font-weight="bold"
  >
  3.4
  </text>

  <path stroke="#74838f" stroke-width="2.0" d="M 476 380 L 476 390" />
  <path stroke="#74838f" stroke-dasharray="10 6" stroke-width="0.5"  d="M 476 20 L 476 380" />
  <path stroke="#74838f" stroke-dasharray="10 6" stroke-width="0.5"  d="M 20 236 L 780 236" />
  
    

   

  
  
  
  <text
    x="15"
    font-family="-apple-system, system-ui, BlinkMacSystemFont, Roboto"
    y="272"
    dominant-baseline="middle"
    text-anchor="end"
    font-size="12"
    fill="#74838f"
    font-weight="bold"
    >
    0.5
    
  </text>
  <text
    x="552"
    font-family="-apple-system, system-ui, BlinkMacSystemFont, Roboto"
    y="390"
    dominant-baseline="hanging"
    text-anchor="middle"
    font-size="12"
    fill="#74838f"
    font-weight="bold"
  >
  3.8
  </text>

  <path stroke="#74838f" stroke-width="2.0" d="M 552 380 L 552 390" />
  <path stroke="#74838f" stroke-dasharray="10 6" stroke-width="0.5"  d="M 552 20 L 552 380" />
  <path stroke="#74838f" stroke-dasharray="10 6" stroke-width="0.5"  d="M 20 272 L 780 272" />
  
    

   

  
  
  
  <text
    x="15"
    font-family="-apple-system, system-ui, BlinkMacSystemFont, Roboto"
    y="308"
    dominant-baseline="middle"
    text-anchor="end"
    font-size="12"
    fill="#74838f"
    font-weight="bold"
    >
    0
    
  </text>
  <text
    x="628"
    font-family="-apple-system, system-ui, BlinkMacSystemFont, Roboto"
    y="390"
    dominant-baseline="hanging"
    text-anchor="middle"
    font-size="12"
    fill="#74838f"
    font-weight="bold"
  >
  4.2
  </text>

  <path stroke="#74838f" stroke-width="2.0" d="M 628 380 L 628 390" />
  <path stroke="#74838f" stroke-dasharray="10 6" stroke-width="0.5"  d="M 628 20 L 628 380" />
  <path stroke="#74838f" stroke-dasharray="10 6" stroke-width="0.5"  d="M 20 308 L 780 308" />
  
    

   

  
  
  
  <text
    x="15"
    font-family="-apple-system, system-ui, BlinkMacSystemFont, Roboto"
    y="344"
    dominant-baseline="middle"
    text-anchor="end"
    font-size="12"
    fill="#74838f"
    font-weight="bold"
    >
    -0.5
    
  </text>
  <text
    x="704"
    font-family="-apple-system, system-ui, BlinkMacSystemFont, Roboto"
    y="390"
    dominant-baseline="hanging"
    text-anchor="middle"
    font-size="12"
    fill="#74838f"
    font-weight="bold"
  >
  4.6
  </text>

  <path stroke="#74838f" stroke-width="2.0" d="M 704 380 L 704 390" />
  <path stroke="#74838f" stroke-dasharray="10 6" stroke-width="0.5"  d="M 704 20 L 704 380" />
  <path stroke="#74838f" stroke-dasharray="10 6" stroke-width="0.5"  d="M 20 344 L 780 344" />
  
    

   

  
  
  
  <text
    x="15"
    font-family="-apple-system, system-ui, BlinkMacSystemFont, Roboto"
    y="380"
    dominant-baseline="middle"
    text-anchor="end"
    font-size="12"
    fill="#74838f"
    font-weight="bold"
    >
    -1
    
  </text>
  <text
    x="780"
    font-family="-apple-system, system-ui, BlinkMacSystemFont, Roboto"
    y="390"
    dominant-baseline="hanging"
    text-anchor="middle"
    font-size="12"
    fill="#74838f"
    font-weight="bold"
  >
  5
  </text>

  <path stroke="#74838f" stroke-width="2.0" d="M 780 380 L 780 390" />
  <path stroke="#74838f" stroke-dasharray="10 6" stroke-width="0.5"  d="M 780 20 L 780 380" />
  <path stroke="#74838f" stroke-dasharray="10 6" stroke-width="0.5"  d="M 20 380 L 780 380" />
  
  
  <path stroke="#74838f" stroke-width="2" fill="none"  d="M 20 380 L 780 380" />
    

   

  


  
  
  
  
  
  <g stroke="#8ff0a4" stroke-width="2" fill="#8ff0a4">
    <circle cx="400" cy="293.6" r="2" />
  </g>
  
  
  
  
  
  
  
  <g stroke="#8ff0a4" stroke-width="2" fill="#8ff0a4">
    <circle cx="438.00000000000006" cy="293.6" r="2" />
  </g>
  
  
  
  
  
  
  
  <g stroke="#8ff0a4" stroke-width="2" fill="#8ff0a4">
    <circle cx="419" cy="293.6" r="2" />
  </g>
  
  
  
  
  
  
  
  <g stroke="#8ff0a4" stroke-width="2" fill="#8ff0a4">
    <circle cx="514" cy="293.6" r="2" />
  </g>
  
  
  
  
  
  
  
  <g stroke="#8ff0a4" stroke-width="2" fill="#8ff0a4">
    <circle cx="571" cy="279.20000000000005" r="2" />
  </g>
  
  
  
  
  
  
  
  <g stroke="#8ff0a4" stroke-width="2" fill="#8ff0a4">
    <circle cx="476" cy="286.4" r="2" />
  </g>
  
  
  
  
  
  
  
  <g stroke="#8ff0a4" stroke-width="2" fill="#8ff0a4">
    <circle cx="476" cy="293.6" r="2" />
  </g>
  
  
  
  
  
  
  
  <g stroke="#8ff0a4" stroke-width="2" fill="#8ff0a4">
    <circle cx="381" cy="293.6" r="2" />
  </g>
  
  
  
  
  
  
  
  <g stroke="#8ff0a4" stroke-width="2" fill="#8ff0a4">
    <circle cx="419" cy="300.79999999999995" r="2" />
  </g>
  
  
  
  
  
  
  
  <g stroke="#8ff0a4" stroke-width="2" fill="#8ff0a4">
    <circle cx="533" cy="293.6" r="2" />
  </g>
  
  
  
  
  
  
  
  <g stroke="#8ff0a4" stroke-width="2" fill="#8ff0a4">
    <circle cx="476" cy="293.6" r="2" />
  </g>
  
  
  
  
  
  
  
  <g stroke="#8ff0a4" stroke-width="2" fill="#8ff0a4">
    <circle cx="400" cy="300.79999999999995" r="2" />
  </g>
  
  
  
  
  
  
  
  <g stroke="#8ff0a4" stroke-width="2" fill="#8ff0a4">
    <circle cx="400" cy="300.79999999999995" r="2" />
  </g>
  
  
  
  
  
  
  
  <g stroke="#8ff0a4" stroke-width="2" fill="#8ff0a4">
    <circle cx="590" cy="293.6" r="2" />
  </g>
  
  
  
  
  
  
  
  <g stroke="#8ff0a4" stroke-width="2" fill="#8ff0a4">
    <circle cx="666.0000000000001" cy="279.20000000000005" r="2" />
  </g>
  
  
  
  
  
  
  
  <g stroke="#8ff0a4" stroke-width="2" fill="#8ff0a4">
    <circle cx="571" cy="279.20000000000005" r="2" />
  </g>
  
  
  
  
  
  
  
  <g stroke="#8ff0a4" stroke-width="2" fill="#8ff0a4">
    <circle cx="495" cy="286.4" r="2" />
  </g>
  
  
  
  
  
  
  
  <g stroke="#8ff0a4" stroke-width="2" fill="#8ff0a4">
    <circle cx="552" cy="286.4" r="2" />
  </g>
  
  
  
  
  
  
  
  <g stroke="#8ff0a4" stroke-width="2" fill="#8ff0a4">
    <circle cx="552" cy="286.4" r="2" />
  </g>
  
  
  
  
  
  
  
  <g stroke="#8ff0a4" stroke-width="2" fill="#8ff0a4">
    <circle cx="476" cy="293.6" r="2" />
  </g>
  
  
  
  
  
  
  
  <g stroke="#8ff0a4" stroke-width="2" fill="#8ff0a4">
    <circle cx="533" cy="279.20000000000005" r="2" />
  </g>
  
  
  
  
  
  
  
  <g stroke="#8ff0a4" stroke-width="2" fill="#8ff0a4">
    <circle cx="514" cy="293.6" r="2" />
  </g>
  
  
  
  
  
  
  
  <g stroke="#8ff0a4" stroke-width="2" fill="#8ff0a4">
    <circle cx="456.99999999999994" cy="272" r="2" />
  </g>
  
  
  
  
  
  
  
  <g stroke="#8ff0a4" stroke-width="2" fill="#8ff0a4">
    <circle cx="476" cy="293.6" r="2" />
  </g>
  
  
  
  
  
  
  
  <g stroke="#8ff0a4" stroke-width="2" fill="#8ff0a4">
    <circle cx="400" cy="293.6" r="2" />
  </g>
  
  
  
  
  
  
  
  <g stroke="#8ff0a4" stroke-width="2" fill="#8ff0a4">
    <circle cx="476" cy="279.20000000000005" r="2" />
  </g>
  
  
  
  
  
  
  
  <g stroke="#8ff0a4" stroke-width="2" fill="#8ff0a4">
    <circle cx="495" cy="293.6" r="2" />
  </g>
  
  
  
  
  
  
  
  <g stroke="#8ff0a4" stroke-width="2" fill="#8ff0a4">
    <circle cx="476" cy="293.6" r="2" />
  </g>
  
  
  
  
  
  
  
  <g stroke="#8ff0a4" stroke-width="2" fill="#8ff0a4">
    <circle cx="438.00000000000006" cy="293.6" r="2" />
  </g>
  
  
  
  
  
  
  
  <g stroke="#8ff0a4" stroke-width="2" fill="#8ff0a4">
    <circle cx="419" cy="293.6" r="2" />
  </g>
  
  
  
  
  
  
  
  <g stroke="#8ff0a4" stroke-width="2" fill="#8ff0a4">
    <circle cx="476" cy="279.20000000000005" r="2" />
  </g>
  
  
  
  
  
  
  
  <g stroke="#8ff0a4" stroke-width="2" fill="#8ff0a4">
    <circle cx="608.9999999999999" cy="300.79999999999995" r="2" />
  </g>
  
  
  
  
  
  
  
  <g stroke="#8ff0a4" stroke-width="2" fill="#8ff0a4">
    <circle cx="628" cy="293.6" r="2" />
  </g>
  
  
  
  
  
  
  
  <g stroke="#8ff0a4" stroke-width="2" fill="#8ff0a4">
    <circle cx="419" cy="300.79999999999995" r="2" />
  </g>
  
  
  
  
  
  
  
  <g stroke="#8ff0a4" stroke-width="2" fill="#8ff0a4">
    <circle cx="438.00000000000006" cy="293.6" r="2" />
  </g>
  
  
  
  
  
  
  
  <g stroke="#8ff0a4" stroke-width="2" fill="#8ff0a4">
    <circle cx="495" cy="293.6" r="2" />
  </g>
  
  
  
  
  
  
  
  <g stroke="#8ff0a4" stroke-width="2" fill="#8ff0a4">
    <circle cx="419" cy="300.79999999999995" r="2" />
  </g>
  
  
  
  
  
  
  
  <g stroke="#8ff0a4" stroke-width="2" fill="#8ff0a4">
    <circle cx="400" cy="293.6" r="2" />
  </g>
  
  
  
  
  
  
  
  <g stroke="#8ff0a4" stroke-width="2" fill="#8ff0a4">
    <circle cx="476" cy="293.6" r="2" />
  </g>
  
  
  
  
  
  
  
  <g stroke="#8ff0a4" stroke-width="2" fill="#8ff0a4">
    <circle cx="495" cy="286.4" r="2" />
  </g>
  
  
  
  
  
  
  
  <g stroke="#8ff0a4" stroke-width="2" fill="#8ff0a4">
    <circle cx="267" cy="286.4" r="2" />
  </g>
  
  
  
  
  
  
  
  <g stroke="#8ff0a4" stroke-width="2" fill="#8ff0a4">
    <circle cx="438.00000000000006" cy="293.6" r="2" />
  </g>
  
  
  
  
  
  
  
  <g stroke="#8ff0a4" stroke-width="2" fill="#8ff0a4">
    <circle cx="495" cy="264.8" r="2" />
  </g>
  
  
  
  
  
  
  
  <g stroke="#8ff0a4" stroke-width="2" fill="#8ff0a4">
    <circle cx="552" cy="279.20000000000005" r="2" />
  </g>
  
  
  
  
  
  
  
  <g stroke="#8ff0a4" stroke-width="2" fill="#8ff0a4">
    <circle cx="400" cy="286.4" r="2" />
  </g>
  
  
  
  
  
  
  
  <g stroke="#8ff0a4" stroke-width="2" fill="#8ff0a4">
    <circle cx="552" cy="293.6" r="2" />
  </g>
  
  
  
  
  
  
  
  <g stroke="#8ff0a4" stroke-width="2" fill="#8ff0a4">
    <circle cx="438.00000000000006" cy="293.6" r="2" />
  </g>
  
  
  
  
  
  
  
  <g stroke="#8ff0a4" stroke-width="2" fill="#8ff0a4">
    <circle cx="533" cy="293.6" r="2" />
  </g>
  
  
  
  
  
  
  
  <g stroke="#8ff0a4" stroke-width="2" fill="#8ff0a4">
    <circle cx="456.99999999999994" cy="293.6" r="2" />
  </g>
  
  
  
  
  
  
  
  <g stroke="red" stroke-width="2" fill="red">
    <circle cx="438.00000000000006" cy="207.20000000000002" r="2" />
  </g>
  
  
  
  
  
  
  
  <g stroke="red" stroke-width="2" fill="red">
    <circle cx="438.00000000000006" cy="200" r="2" />
  </g>
  
  
  
  
  
  
  
  <g stroke="red" stroke-width="2" fill="red">
    <circle cx="419" cy="200" r="2" />
  </g>
  
  
  
  
  
  
  
  <g stroke="red" stroke-width="2" fill="red">
    <circle cx="267" cy="214.4" r="2" />
  </g>
  
  
  
  
  
  
  
  <g stroke="red" stroke-width="2" fill="red">
    <circle cx="361.99999999999994" cy="200" r="2" />
  </g>
  
  
  
  
  
  
  
  <g stroke="red" stroke-width="2" fill="red">
    <circle cx="361.99999999999994" cy="214.4" r="2" />
  </g>
  
  
  
  
  
  
  
  <g stroke="red" stroke-width="2" fill="red">
    <circle cx="456.99999999999994" cy="192.79999999999998" r="2" />
  </g>
  
  
  
  
  
  
  
  <g stroke="#8ff0a4" stroke-width="2" fill="#8ff0a4">
    <circle cx="286" cy="236" r="2" />
  </g>
  
  
  
  
  
  
  
  <g stroke="red" stroke-width="2" fill="red">
    <circle cx="381" cy="214.4" r="2" />
  </g>
  
  
  
  
  
  
  
  <g stroke="red" stroke-width="2" fill="red">
    <circle cx="343.00000000000006" cy="207.20000000000002" r="2" />
  </g>
  
  
  
  
  
  
  
  <g stroke="red" stroke-width="2" fill="red">
    <circle cx="210" cy="236" r="2" />
  </g>
  
  
  
  
  
  
  
  <g stroke="red" stroke-width="2" fill="red">
    <circle cx="400" cy="200" r="2" />
  </g>
  
  
  
  
  
  
  
  <g stroke="red" stroke-width="2" fill="red">
    <circle cx="248.00000000000003" cy="236" r="2" />
  </g>
  
  
  
  
  
  
  
  <g stroke="red" stroke-width="2" fill="red">
    <circle cx="381" cy="207.20000000000002" r="2" />
  </g>
  
  
  
  
  
  
  
  <g stroke="red" stroke-width="2" fill="red">
    <circle cx="381" cy="214.4" r="2" />
  </g>
  
  
  
  
  
  
  
  <g stroke="red" stroke-width="2" fill="red">
    <circle cx="419" cy="207.20000000000002" r="2" />
  </g>
  
  
  
  
  
  
  
  <g stroke="red" stroke-width="2" fill="red">
    <circle cx="400" cy="200" r="2" />
  </g>
  
  
  
  
  
  
  
  <g stroke="#8ff0a4" stroke-width="2" fill="#8ff0a4">
    <circle cx="343.00000000000006" cy="236" r="2" />
  </g>
  
  
  
  
  
  
  
  <g stroke="red" stroke-width="2" fill="red">
    <circle cx="248.00000000000003" cy="200" r="2" />
  </g>
  
  
  
  
  
  
  
  <g stroke="red" stroke-width="2" fill="red">
    <circle cx="305" cy="228.79999999999998" r="2" />
  </g>
  
  
  
  
  
  
  
  <g stroke="red" stroke-width="2" fill="red">
    <circle cx="438.00000000000006" cy="178.40000000000003" r="2" />
  </g>
  
  
  
  
  
  
  
  <g stroke="red" stroke-width="2" fill="red">
    <circle cx="361.99999999999994" cy="214.4" r="2" />
  </g>
  
  
  
  
  
  
  
  <g stroke="red" stroke-width="2" fill="red">
    <circle cx="305" cy="200" r="2" />
  </g>
  
  
  
  
  
  
  
  <g stroke="red" stroke-width="2" fill="red">
    <circle cx="361.99999999999994" cy="221.59999999999997" r="2" />
  </g>
  
  
  
  
  
  
  
  <g stroke="red" stroke-width="2" fill="red">
    <circle cx="381" cy="214.4" r="2" />
  </g>
  
  
  
  
  
  
  
  <g stroke="#8ff0a4" stroke-width="2" fill="#8ff0a4">
    <polygon points="399, 208.20000000000002 401, 208.20000000000002, 400, 206.20000000000002"/>
  </g>
  
  
  
  
  
  
  
  <g stroke="#8ff0a4" stroke-width="2" fill="#8ff0a4">
    <polygon points="360.99999999999994, 208.20000000000002 362.99999999999994, 208.20000000000002, 361.99999999999994, 206.20000000000002"/>
  </g>
  
  
  
  
  
  
  
  <g stroke="#8ff0a4" stroke-width="2" fill="#8ff0a4">
    <polygon points="399, 186.6 401, 186.6, 400, 184.6"/>
  </g>
  
  
  
  
  
  
  
  <g stroke="#8ff0a4" stroke-width="2" fill="#8ff0a4">
    <polygon points="380, 201 382, 201, 381, 199"/>
  </g>
  
  
  
  
  
  
  
  <g stroke="red" stroke-width="2" fill="red">
    <polygon points="323, 237 325, 237, 324, 235"/>
  </g>
  
  
  
  
  
  
  
  <g stroke="#8ff0a4" stroke-width="2" fill="#8ff0a4">
    <polygon points="285, 229.79999999999998 287, 229.79999999999998, 286, 227.79999999999998"/>
  </g>
  
  
  
  
  
  
  
  <g stroke="red" stroke-width="2" fill="red">
    <polygon points="285, 237 287, 237, 286, 235"/>
  </g>
  
  
  
  
  
  
  
  <g stroke="#8ff0a4" stroke-width="2" fill="#8ff0a4">
    <polygon points="342.00000000000006, 222.59999999999997 344.00000000000006, 222.59999999999997, 343.00000000000006, 220.59999999999997"/>
  </g>
  
  
  
  
  
  
  
  <g stroke="#8ff0a4" stroke-width="2" fill="#8ff0a4">
    <polygon points="342.00000000000006, 193.79999999999998 344.00000000000006, 193.79999999999998, 343.00000000000006, 191.79999999999998"/>
  </g>
  
  
  
  
  
  
  
  <g stroke="#8ff0a4" stroke-width="2" fill="#8ff0a4">
    <polygon points="399, 201 401, 201, 400, 199"/>
  </g>
  
  
  
  
  
  
  
  <g stroke="#8ff0a4" stroke-width="2" fill="#8ff0a4">
    <polygon points="475, 193.79999999999998 477, 193.79999999999998, 476, 191.79999999999998"/>
  </g>
  
  
  
  
  
  
  
  <g stroke="#8ff0a4" stroke-width="2" fill="#8ff0a4">
    <polygon points="418, 201 420, 201, 419, 199"/>
  </g>
  
  
  
  
  
  
  
  <g stroke="#8ff0a4" stroke-width="2" fill="#8ff0a4">
    <polygon points="266, 215.4 268, 215.4, 267, 213.4"/>
  </g>
  
  
  
  
  
  
  
  <g stroke="#8ff0a4" stroke-width="2" fill="#8ff0a4">
    <polygon points="399, 215.4 401, 215.4, 400, 213.4"/>
  </g>
  
  
  
  
  
  
  
  <g stroke="#8ff0a4" stroke-width="2" fill="#8ff0a4">
    <polygon points="304, 215.4 306, 215.4, 305, 213.4"/>
  </g>
  
  
  
  
  
  
  
  <g stroke="#8ff0a4" stroke-width="2" fill="#8ff0a4">
    <polygon points="323, 222.59999999999997 325, 222.59999999999997, 324, 220.59999999999997"/>
  </g>
  
  
  
  
  
  
  
  <g stroke="#8ff0a4" stroke-width="2" fill="#8ff0a4">
    <polygon points="399, 208.20000000000002 401, 208.20000000000002, 400, 206.20000000000002"/>
  </g>
  
  
  
  
  
  
  
  <g stroke="#8ff0a4" stroke-width="2" fill="#8ff0a4">
    <polygon points="323, 222.59999999999997 325, 222.59999999999997, 324, 220.59999999999997"/>
  </g>
  
  
  
  
  
  
  
  <g stroke="#8ff0a4" stroke-width="2" fill="#8ff0a4">
    <polygon points="266, 237 268, 237, 267, 235"/>
  </g>
  
  
  
  
  
  
  
  <g stroke="#8ff0a4" stroke-width="2" fill="#8ff0a4">
    <polygon points="342.00000000000006, 215.4 344.00000000000006, 215.4, 343.00000000000006, 213.4"/>
  </g>
  
  
  
  
  
  
  
  <g stroke="red" stroke-width="2" fill="red">
    <polygon points="399, 222.59999999999997 401, 222.59999999999997, 400, 220.59999999999997"/>
  </g>
  
  
  
  
  
  
  
  <g stroke="#8ff0a4" stroke-width="2" fill="#8ff0a4">
    <polygon points="380, 215.4 382, 215.4, 381, 213.4"/>
  </g>
  
  
  
  
  
  
  
  <g stroke="#8ff0a4" stroke-width="2" fill="#8ff0a4">
    <polygon points="380, 215.4 382, 215.4, 381, 213.4"/>
  </g>
  
  
  
  
  
  
  
  <g stroke="#8ff0a4" stroke-width="2" fill="#8ff0a4">
    <polygon points="304, 229.79999999999998 306, 229.79999999999998, 305, 227.79999999999998"/>
  </g>
  
  
  
  
  
  
  
  <g stroke="#8ff0a4" stroke-width="2" fill="#8ff0a4">
    <polygon points="360.99999999999994, 215.4 362.99999999999994, 215.4, 361.99999999999994, 213.4"/>
  </g>
  
  
  
  
  
  
  
  <g stroke="#8ff0a4" stroke-width="2" fill="#8ff0a4">
    <polygon points="455.99999999999994, 129.00000000000003 457.99999999999994, 129.00000000000003, 456.99999999999994, 127.00000000000003"/>
  </g>
  
  
  
  
  
  
  
  <g stroke="#8ff0a4" stroke-width="2" fill="#8ff0a4">
    <polygon points="342.00000000000006, 172.20000000000002 344.00000000000006, 172.20000000000002, 343.00000000000006, 170.20000000000002"/>
  </g>
  
  
  
  
  
  
  
  <g stroke="#8ff0a4" stroke-width="2" fill="#8ff0a4">
    <polygon points="399, 157.8 401, 157.8, 400, 155.8"/>
  </g>
  
  
  
  
  
  
  
  <g stroke="#8ff0a4" stroke-width="2" fill="#8ff0a4">
    <polygon points="380, 179.40000000000003 382, 179.40000000000003, 381, 177.40000000000003"/>
  </g>
  
  
  
  
  
  
  
  <g stroke="#8ff0a4" stroke-width="2" fill="#8ff0a4">
    <polygon points="399, 150.6 401, 150.6, 400, 148.6"/>
  </g>
  
  
  
  
  
  
  
  <g stroke="#8ff0a4" stroke-width="2" fill="#8ff0a4">
    <polygon points="399, 157.8 401, 157.8, 400, 155.8"/>
  </g>
  
  
  
  
  
  
  
  <g stroke="#8ff0a4" stroke-width="2" fill="#8ff0a4">
    <polygon points="304, 186.6 306, 186.6, 305, 184.6"/>
  </g>
  
  
  
  
  
  
  
  <g stroke="#8ff0a4" stroke-width="2" fill="#8ff0a4">
    <polygon points="380, 179.40000000000003 382, 179.40000000000003, 381, 177.40000000000003"/>
  </g>
  
  
  
  
  
  
  
  <g stroke="#8ff0a4" stroke-width="2" fill="#8ff0a4">
    <polygon points="304, 179.40000000000003 306, 179.40000000000003, 305, 177.40000000000003"/>
  </g>
  
  
  
  
  
  
  
  <g stroke="#8ff0a4" stroke-width="2" fill="#8ff0a4">
    <polygon points="513, 129.00000000000003 515, 129.00000000000003, 514, 127.00000000000003"/>
  </g>
  
  
  
  
  
  
  
  <g stroke="#8ff0a4" stroke-width="2" fill="#8ff0a4">
    <polygon points="437.00000000000006, 165 439.00000000000006, 165, 438.00000000000006, 163"/>
  </g>
  
  
  
  
  
  
  
  <g stroke="#8ff0a4" stroke-width="2" fill="#8ff0a4">
    <polygon points="342.00000000000006, 172.20000000000002 344.00000000000006, 172.20000000000002, 343.00000000000006, 170.20000000000002"/>
  </g>
  
  
  
  
  
  
  
  <g stroke="#8ff0a4" stroke-width="2" fill="#8ff0a4">
    <polygon points="399, 157.8 401, 157.8, 400, 155.8"/>
  </g>
  
  
  
  
  
  
  
  <g stroke="#8ff0a4" stroke-width="2" fill="#8ff0a4">
    <polygon points="304, 165 306, 165, 305, 163"/>
  </g>
  
  
  
  
  
  
  
  <g stroke="#8ff0a4" stroke-width="2" fill="#8ff0a4">
    <polygon points="360.99999999999994, 136.20000000000002 362.99999999999994, 136.20000000000002, 361.99999999999994, 134.20000000000002"/>
  </g>
  
  
  
  
  
  
  
  <g stroke="#8ff0a4" stroke-width="2" fill="#8ff0a4">
    <polygon points="437.00000000000006, 143.40000000000003 439.00000000000006, 143.40000000000003, 438.00000000000006, 141.40000000000003"/>
  </g>
  
  
  
  
  
  
  
  <g stroke="#8ff0a4" stroke-width="2" fill="#8ff0a4">
    <polygon points="399, 179.40000000000003 401, 179.40000000000003, 400, 177.40000000000003"/>
  </g>
  
  
  
  
  
  
  
  <g stroke="#8ff0a4" stroke-width="2" fill="#8ff0a4">
    <polygon points="551, 150.6 553, 150.6, 552, 148.6"/>
  </g>
  
  
  
  
  
  
  
  <g stroke="#8ff0a4" stroke-width="2" fill="#8ff0a4">
    <polygon points="323, 143.40000000000003 325, 143.40000000000003, 324, 141.40000000000003"/>
  </g>
  
  
  
  
  
  
  
  <g stroke="#8ff0a4" stroke-width="2" fill="#8ff0a4">
    <polygon points="247.00000000000003, 201 249.00000000000003, 201, 248.00000000000003, 199"/>
  </g>
  
  
  
  
  
  
  
  <g stroke="#8ff0a4" stroke-width="2" fill="#8ff0a4">
    <polygon points="437.00000000000006, 143.40000000000003 439.00000000000006, 143.40000000000003, 438.00000000000006, 141.40000000000003"/>
  </g>
  
  
  
  
  
  
  
  <g stroke="#8ff0a4" stroke-width="2" fill="#8ff0a4">
    <polygon points="360.99999999999994, 165 362.99999999999994, 165, 361.99999999999994, 163"/>
  </g>
  
  
  
  
  
  
  
  <g stroke="#8ff0a4" stroke-width="2" fill="#8ff0a4">
    <polygon points="360.99999999999994, 165 362.99999999999994, 165, 361.99999999999994, 163"/>
  </g>
  
  
  
  
  
  
  
  <g stroke="#8ff0a4" stroke-width="2" fill="#8ff0a4">
    <polygon points="342.00000000000006, 179.40000000000003 344.00000000000006, 179.40000000000003, 343.00000000000006, 177.40000000000003"/>
  </g>
  
  
  
  
  
  
  
  <g stroke="#8ff0a4" stroke-width="2" fill="#8ff0a4">
    <polygon points="455.99999999999994, 157.8 457.99999999999994, 157.8, 456.99999999999994, 155.8"/>
  </g>
  
  
  
  
  
  
  
  <g stroke="#8ff0a4" stroke-width="2" fill="#8ff0a4">
    <polygon points="437.00000000000006, 179.40000000000003 439.00000000000006, 179.40000000000003, 438.00000000000006, 177.40000000000003"/>
  </g>
  
  
  
  
  
  
  
  <g stroke="#8ff0a4" stroke-width="2" fill="#8ff0a4">
    <polygon points="360.99999999999994, 179.40000000000003 362.99999999999994, 179.40000000000003, 361.99999999999994, 177.40000000000003"/>
  </g>
  
  
  
  
  
  
  
  <g stroke="#8ff0a4" stroke-width="2" fill="#8ff0a4">
    <polygon points="399, 179.40000000000003 401, 179.40000000000003, 400, 177.40000000000003"/>
  </g>
  
  
  
  
  
  
  
  <g stroke="#8ff0a4" stroke-width="2" fill="#8ff0a4">
    <polygon points="360.99999999999994, 157.8 362.99999999999994, 157.8, 361.99999999999994, 155.8"/>
  </g>
  
  
  
  
  
  
  
  <g stroke="#8ff0a4" stroke-width="2" fill="#8ff0a4">
    <polygon points="399, 193.79999999999998 401, 193.79999999999998, 400, 191.79999999999998"/>
  </g>
  
  
  
  
  
  
  
  <g stroke="#8ff0a4" stroke-width="2" fill="#8ff0a4">
    <polygon points="360.99999999999994, 172.20000000000002 362.99999999999994, 172.20000000000002, 361.99999999999994, 170.20000000000002"/>
  </g>
  
  
  
  
  
  
  
  <g stroke="#8ff0a4" stroke-width="2" fill="#8ff0a4">
    <polygon points="551, 165 553, 165, 552, 163"/>
  </g>
  
  
  
  
  
  
  
  <g stroke="#8ff0a4" stroke-width="2" fill="#8ff0a4">
    <polygon points="360.99999999999994, 150.6 362.99999999999994, 150.6, 361.99999999999994, 148.6"/>
  </g>
  
  
  
  
  
  
  
  <g stroke="#8ff0a4" stroke-width="2" fill="#8ff0a4">
    <polygon points="360.99999999999994, 201 362.99999999999994, 201, 361.99999999999994, 199"/>
  </g>
  
  
  
  
  
  
  
  <g stroke="#8ff0a4" stroke-width="2" fill="#8ff0a4">
    <polygon points="323, 208.20000000000002 325, 208.20000000000002, 324, 206.20000000000002"/>
  </g>
  
  
  
  
  
  
  
  <g stroke="#8ff0a4" stroke-width="2" fill="#8ff0a4">
    <polygon points="399, 143.40000000000003 401, 143.40000000000003, 400, 141.40000000000003"/>
  </g>
  
  
  
  
  
  
  
  <g stroke="#8ff0a4" stroke-width="2" fill="#8ff0a4">
    <polygon points="475, 136.20000000000002 477, 136.20000000000002, 476, 134.20000000000002"/>
  </g>
  
  
  
  
  
  
  
  <g stroke="#8ff0a4" stroke-width="2" fill="#8ff0a4">
    <polygon points="418, 179.40000000000003 420, 179.40000000000003, 419, 177.40000000000003"/>
  </g>
  
  
  
  
  
  
  
  <g stroke="#8ff0a4" stroke-width="2" fill="#8ff0a4">
    <polygon points="399, 179.40000000000003 401, 179.40000000000003, 400, 177.40000000000003"/>
  </g>
  
  
  
  
  
  
  
  <g stroke="#8ff0a4" stroke-width="2" fill="#8ff0a4">
    <polygon points="418, 157.8 420, 157.8, 419, 155.8"/>
  </g>
  
  
  
  
  
  
  
  <g stroke="#8ff0a4" stroke-width="2" fill="#8ff0a4">
    <polygon points="418, 136.20000000000002 420, 136.20000000000002, 419, 134.20000000000002"/>
  </g>
  
  
  
  
  
  
  
  <g stroke="#8ff0a4" stroke-width="2" fill="#8ff0a4">
    <polygon points="418, 143.40000000000003 420, 143.40000000000003, 419, 141.40000000000003"/>
  </g>
  
  
  
  
  
  
  
  <g stroke="#8ff0a4" stroke-width="2" fill="#8ff0a4">
    <polygon points="342.00000000000006, 172.20000000000002 344.00000000000006, 172.20000000000002, 343.00000000000006, 170.20000000000002"/>
  </g>
  
  
  
  
  
  
  
  <g stroke="#8ff0a4" stroke-width="2" fill="#8ff0a4">
    <polygon points="437.00000000000006, 143.40000000000003 439.00000000000006, 143.40000000000003, 438.00000000000006, 141.40000000000003"/>
  </g>
  
  
  
  
  
  
  
  <g stroke="#8ff0a4" stroke-width="2" fill="#8ff0a4">
    <polygon points="455.99999999999994, 129.00000000000003 457.99999999999994, 129.00000000000003, 456.99999999999994, 127.00000000000003"/>
  </g>
  
  
  
  
  
  
  
  <g stroke="#8ff0a4" stroke-width="2" fill="#8ff0a4">
    <polygon points="399, 143.40000000000003 401, 143.40000000000003, 400, 141.40000000000003"/>
  </g>
  
  
  
  
  
  
  
  <g stroke="#8ff0a4" stroke-width="2" fill="#8ff0a4">
    <polygon points="304, 172.20000000000002 306, 172.20000000000002, 305, 170.20000000000002"/>
  </g>
  
  
  
  
  
  
  
  <g stroke="#8ff0a4" stroke-width="2" fill="#8ff0a4">
    <polygon points="399, 165 401, 165, 400, 163"/>
  </g>
  
  
  
  
  
  
  
  <g stroke="#8ff0a4" stroke-width="2" fill="#8ff0a4">
    <polygon points="475, 143.40000000000003 477, 143.40000000000003, 476, 141.40000000000003"/>
  </g>
  
  
  
  
  
  
  
  <g stroke="#8ff0a4" stroke-width="2" fill="#8ff0a4">
    <polygon points="399, 179.40000000000003 401, 179.40000000000003, 400, 177.40000000000003"/>
  </g>
  
  
   
</svg>